/* XPM */
static char *result[] = {
/* columns rows colors chars-per-pixel */
"64 64 2 1 ",
"  c #85A5FA",
". c #A4BBFA",
/* pixels */
".    ............    ............    ............    ...........",
".    ............    ............    ............    ...........",
".    ............    ............    ............    ...........",
".    ............    ............    ............    ...........",
".    ............    ............    ............    ...........",
".    ............    ............    ............    ...........",
".    ............    ............    ............    ...........",
".    ............    ............    ............    ...........",
".    ............    ............    ............    ...........",
".    ............    ............    ............    ...........",
".    ............    ............    ............    ...........",
".    ............    ............    ............    ...........",
".    ............    ............    ............    ...........",
".    ............    ............    ............    ...........",
".    ............    ............    ............    ...........",
".    ............    ............    ............    ...........",
".    ............    ............    ............    ...........",
".    ............    ............    ............    ...........",
".    ............    ............    ............    ...........",
".    ............    ............    ............    ...........",
".    ............    ............    ............    ...........",
".    ............    ............    ............    ...........",
".    ............    ............    ............    ...........",
".    ............    ............    ............    ...........",
".    ............    ............    ............    ...........",
".    ............    ............    ............    ...........",
".    ............    ............    ............    ...........",
".    ............    ............    ............    ...........",
".    ............    ............    ............    ...........",
".    ............    ............    ............    ...........",
".    ............    ............    ............    ...........",
".    ............    ............    ............    ...........",
".    ............    ............    ............    ...........",
".    ............    ............    ............    ...........",
".    ............    ............    ............    ...........",
".    ............    ............    ............    ...........",
".    ............    ............    ............    ...........",
".    ............    ............    ............    ...........",
".    ............    ............    ............    ...........",
".    ............    ............    ............    ...........",
".    ............    ............    ............    ...........",
".    ............    ............    ............    ...........",
".    ............    ............    ............    ...........",
".    ............    ............    ............    ...........",
".    ............    ............    ............    ...........",
".    ............    ............    ............    ...........",
".    ............    ............    ............    ...........",
".    ............    ............    ............    ...........",
".    ............    ............    ............    ...........",
".    ............    ............    ............    ...........",
".    ............    ............    ............    ...........",
".    ............    ............    ............    ...........",
".    ............    ............    ............    ...........",
".    ............    ............    ............    ...........",
".    ............    ............    ............    ...........",
".    ............    ............    ............    ...........",
".    ............    ............    ............    ...........",
".    ............    ............    ............    ...........",
".    ............    ............    ............    ...........",
".    ............    ............    ............    ...........",
".    ............    ............    ............    ...........",
".    ............    ............    ............    ...........",
".    ............    ............    ............    ...........",
".    ............    ............    ............    ..........."
};
